<svg xmlns="http://www.w3.org/2000/svg" width="64" height="64" viewBox="0 0 64 64" fill="none">
  <rect width="64" height="64" rx="18" fill="#1A1A1A"/>
  <path d="M32 15C22.611 15 15 22.398 15 31.523C15 35.025 16.139 38.263 18.082 40.921L16 49L24.37 46.827C26.835 48.164 29.672 48.923 32 48.923C41.389 48.923 49 41.525 49 32.4C49 23.275 41.389 15 32 15Z" fill="#128C7E"/>
  <path d="M26.964 24.951C27.53 24.391 28.403 24.339 28.923 24.848L31.173 27.053C31.649 27.519 31.727 28.263 31.36 28.819L30.252 30.5C31.16 32.573 32.811 34.216 34.89 35.118L36.567 34.017C37.123 33.652 37.868 33.73 38.334 34.203L40.543 36.449C41.056 36.97 41.003 37.846 40.441 38.412L39.452 39.407C38.915 39.948 38.125 40.166 37.375 39.981C31.674 38.573 26.408 33.319 25.007 27.626C24.823 26.878 25.042 26.088 25.582 25.553L26.964 24.951Z" fill="#F7F4EF"/>
</svg>
